<svg xmlns="http://www.w3.org/2000/svg" xmlns:xlink="http://www.w3.org/1999/xlink" width="200" zoomAndPan="magnify" viewBox="0 0 150 54" height="72" preserveAspectRatio="xMidYMid meet" version="1.0"><defs><g/></defs><path fill="#000000" d="M 6.355469 10.355469 L 6.355469 40.855469 L 28.300781 40.855469 L 28.300781 10.355469 Z M 12.464844 34.753906 L 12.464844 24.996094 L 19.773438 24.996094 L 19.773438 18.894531 L 14.90625 18.894531 L 14.90625 22.566406 L 12.464844 22.566406 L 12.464844 16.453125 L 22.203125 16.453125 L 22.203125 34.753906 Z M 12.464844 34.753906 " fill-opacity="1" fill-rule="nonzero"/><path fill="#ffffff" d="M 12.464844 34.753906 L 12.464844 24.996094 L 19.773438 24.996094 L 19.773438 18.894531 L 14.90625 18.894531 L 14.90625 22.566406 L 12.464844 22.566406 L 12.464844 16.453125 L 22.203125 16.453125 L 22.203125 34.753906 Z M 12.464844 34.753906 " fill-opacity="1" fill-rule="nonzero"/><g fill="#000000" fill-opacity="1"><g transform="translate(31.364532, 40.241847)"><g><path d="M 1.71875 -29.515625 L 10.296875 -29.515625 C 13.523438 -29.515625 15.816406 -29.078125 17.171875 -28.203125 C 18.535156 -27.335938 19.375 -25.984375 19.6875 -24.140625 C 20.007812 -22.296875 20.171875 -19.171875 20.171875 -14.765625 C 20.171875 -10.359375 20.007812 -7.234375 19.6875 -5.390625 C 19.375 -3.546875 18.535156 -2.1875 17.171875 -1.3125 C 15.816406 -0.4375 13.523438 0 10.296875 0 L 1.71875 0 Z M 10.34375 -6.34375 C 11.113281 -6.34375 11.625 -6.476562 11.875 -6.75 C 12.132812 -7.03125 12.289062 -7.660156 12.34375 -8.640625 C 12.40625 -9.628906 12.4375 -11.671875 12.4375 -14.765625 C 12.4375 -17.847656 12.40625 -19.890625 12.34375 -20.890625 C 12.289062 -21.890625 12.132812 -22.519531 11.875 -22.78125 C 11.625 -23.039062 11.113281 -23.171875 10.34375 -23.171875 L 9.390625 -23.171875 L 9.390625 -6.34375 Z M 10.34375 -6.34375 "/></g></g></g><g fill="#000000" fill-opacity="1"><g transform="translate(52.818385, 40.241847)"><g><path d="M 17.375 -9.140625 L 8.15625 -9.140625 C 8.15625 -7.796875 8.210938 -6.882812 8.328125 -6.40625 C 8.441406 -5.9375 8.71875 -5.628906 9.15625 -5.484375 C 9.601562 -5.347656 10.425781 -5.28125 11.625 -5.28125 C 12.769531 -5.28125 14.515625 -5.335938 16.859375 -5.453125 L 16.859375 -0.34375 C 16.085938 -0.144531 15.050781 0.015625 13.75 0.140625 C 12.445312 0.273438 11.164062 0.34375 9.90625 0.34375 C 7.132812 0.34375 5.125 -0.0390625 3.875 -0.8125 C 2.632812 -1.582031 1.859375 -2.703125 1.546875 -4.171875 C 1.234375 -5.648438 1.078125 -7.890625 1.078125 -10.890625 C 1.078125 -13.867188 1.234375 -16.109375 1.546875 -17.609375 C 1.859375 -19.109375 2.609375 -20.25 3.796875 -21.03125 C 4.984375 -21.820312 6.863281 -22.21875 9.4375 -22.21875 C 12.007812 -22.21875 13.851562 -21.859375 14.96875 -21.140625 C 16.082031 -20.429688 16.757812 -19.367188 17 -17.953125 C 17.25 -16.535156 17.375 -14.179688 17.375 -10.890625 Z M 9.4375 -16.8125 C 9.039062 -16.8125 8.753906 -16.75 8.578125 -16.625 C 8.410156 -16.5 8.296875 -16.1875 8.234375 -15.6875 C 8.179688 -15.1875 8.15625 -14.320312 8.15625 -13.09375 L 10.734375 -13.09375 C 10.734375 -14.375 10.707031 -15.25 10.65625 -15.71875 C 10.613281 -16.195312 10.515625 -16.5 10.359375 -16.625 C 10.203125 -16.75 9.894531 -16.8125 9.4375 -16.8125 Z M 9.4375 -16.8125 "/></g></g></g><g fill="#000000" fill-opacity="1"><g transform="translate(71.311605, 40.241847)"><g><path d="M 1.71875 0 L 1.71875 -29.515625 L 16.171875 -29.515625 L 16.171875 -23.171875 L 9.4375 -23.171875 L 9.4375 -17.25 L 15.28125 -17.25 L 15.28125 -10.890625 L 9.4375 -10.890625 L 9.4375 0 Z M 1.71875 0 "/></g></g></g><g fill="#000000" fill-opacity="1"><g transform="translate(88.345961, 40.241847)"><g><path d="M 1.5 -25.921875 L 1.5 -31.875 L 8.703125 -31.875 L 8.703125 -25.921875 Z M 1.5 0 L 1.5 -21.875 L 8.703125 -21.875 L 8.703125 0 Z M 1.5 0 "/></g></g></g><g fill="#000000" fill-opacity="1"><g transform="translate(98.557996, 40.241847)"><g><path d="M 2.1875 0 L 2.1875 -6.515625 L 9.734375 -6.515625 L 9.734375 0 Z M 2.1875 0 "/></g></g></g><g fill="#000000" fill-opacity="1"><g transform="translate(110.44343, 40.241847)"><g><path d="M 4.296875 0 L 0.078125 -21.875 L 7.25 -21.875 L 9.21875 -7.03125 L 9.609375 -7.03125 L 11.40625 -21.875 L 18.5 -21.875 L 14.28125 0 Z M 4.296875 0 "/></g></g></g><g fill="#000000" fill-opacity="1"><g transform="translate(129.022469, 40.241847)"><g><path d="M 11.03125 -11.671875 C 11.03125 -13.273438 11.003906 -14.347656 10.953125 -14.890625 C 10.910156 -15.429688 10.816406 -15.769531 10.671875 -15.90625 C 10.535156 -16.050781 10.269531 -16.125 9.875 -16.125 C 9.4375 -16.125 9.144531 -16.039062 9 -15.875 C 8.863281 -15.707031 8.773438 -15.320312 8.734375 -14.71875 C 8.691406 -14.113281 8.671875 -12.894531 8.671875 -11.0625 L 8.671875 0 L 1.5 0 L 1.5 -21.875 L 8.40625 -21.875 L 8.578125 -19.4375 L 8.96875 -19.4375 C 9.738281 -21.289062 11.253906 -22.21875 13.515625 -22.21875 C 14.828125 -22.21875 15.816406 -21.945312 16.484375 -21.40625 C 17.160156 -20.863281 17.613281 -20.054688 17.84375 -18.984375 C 18.070312 -17.910156 18.1875 -16.414062 18.1875 -14.5 L 18.1875 0 L 11.03125 0 Z M 11.03125 -11.671875 "/></g></g></g></svg>