<svg xmlns="http://www.w3.org/2000/svg" xmlns:xlink="http://www.w3.org/1999/xlink" width="500" zoomAndPan="magnify" viewBox="0 0 375 374.999991" height="500" preserveAspectRatio="xMidYMid meet" version="1.0"><defs><clipPath id="9943be1772"><path d="M 37.5 0 L 337.5 0 C 347.445312 0 356.984375 3.949219 364.015625 10.984375 C 371.050781 18.015625 375 27.554688 375 37.5 L 375 337.5 C 375 347.445312 371.050781 356.984375 364.015625 364.015625 C 356.984375 371.050781 347.445312 375 337.5 375 L 37.5 375 C 27.554688 375 18.015625 371.050781 10.984375 364.015625 C 3.949219 356.984375 0 347.445312 0 337.5 L 0 37.5 C 0 27.554688 3.949219 18.015625 10.984375 10.984375 C 18.015625 3.949219 27.554688 0 37.5 0 Z M 37.5 0 " clip-rule="nonzero"/></clipPath></defs><g clip-path="url(#9943be1772)"><rect x="-37.5" width="450" fill="#000000" y="-37.499999" height="449.999989" fill-opacity="1"/></g><path fill="#ffffff" d="M 101.476562 67.933594 L 101.476562 307.007812 L 273.515625 307.007812 L 273.515625 67.933594 Z M 149.386719 259.195312 L 149.386719 182.6875 L 206.667969 182.6875 L 206.667969 134.875 L 168.511719 134.875 L 168.511719 163.660156 L 149.386719 163.660156 L 149.386719 115.746094 L 225.699219 115.746094 L 225.699219 259.195312 Z M 149.386719 259.195312 " fill-opacity="1" fill-rule="nonzero"/><path fill="#000000" d="M 149.386719 259.195312 L 149.386719 182.6875 L 206.667969 182.6875 L 206.667969 134.875 L 168.511719 134.875 L 168.511719 163.660156 L 149.386719 163.660156 L 149.386719 115.746094 L 225.699219 115.746094 L 225.699219 259.195312 Z M 149.386719 259.195312 " fill-opacity="1" fill-rule="nonzero"/></svg>